<svg xmlns="http://www.w3.org/2000/svg" xmlns:xlink="http://www.w3.org/1999/xlink" width="10442.568" height="449.662" viewBox="0 0 10442.568 449.662"><defs><radialGradient id="radial-gradient" cx="0.5" cy="0.5" r="8.218" gradientTransform="translate(0.478) scale(0.043 1)" gradientUnits="objectBoundingBox"><stop offset="0.023" stop-color="#96bdec"></stop><stop offset="0.127" stop-color="#91c6e7"></stop><stop offset="0.301" stop-color="#85e0db"></stop><stop offset="0.433" stop-color="#7bf9d0"></stop><stop offset="0.502" stop-color="#77f8d0"></stop><stop offset="0.563" stop-color="#6cf7d1"></stop><stop offset="0.62" stop-color="#5af6d3"></stop><stop offset="0.676" stop-color="#41f3d6"></stop><stop offset="0.73" stop-color="#21f0da"></stop><stop offset="0.775" stop-color="#00eede"></stop><stop offset="1" stop-color="#b9d8f3"></stop></radialGradient></defs><g id="icono-podcast" transform="translate(-72.61 396.511)" opacity="0.5"><path id="Trazado_25" data-name="Trazado 25" d="M10514.068,53.151c-43.837,0-80.045-27.575-107.625-81.96-18.609-36.7-32.789-83.313-46.508-128.39-11-36.154-22.372-73.538-34.958-101.633-12.2-27.228-21.009-35.505-24-37.7-2.989,2.2-11.8,10.474-24,37.7-12.587,28.1-23.96,65.48-34.961,101.633-13.717,45.078-27.9,91.693-46.506,128.39-27.579,54.385-63.788,81.96-107.624,81.96s-80.046-27.577-107.622-81.962c-18.607-36.7-32.79-83.311-46.507-128.39-11-36.152-22.371-73.534-34.956-101.63-12.193-27.222-21-35.5-23.993-37.7-2.987,2.2-11.8,10.479-23.991,37.7-12.587,28.1-23.958,65.476-34.958,101.627-13.713,45.08-27.9,91.7-46.5,128.39-27.577,54.385-63.785,81.962-107.621,81.962s-80.042-27.575-107.62-81.96c-18.607-36.7-32.789-83.313-46.507-128.392-11-36.152-22.372-73.534-34.954-101.63-12.193-27.222-21-35.5-23.993-37.7-2.99,2.2-11.8,10.481-23.992,37.7-12.585,28.1-23.958,65.476-34.954,101.627-13.718,45.08-27.9,91.7-46.5,128.39-27.58,54.385-63.787,81.962-107.621,81.962s-80.046-27.575-107.621-81.96c-18.609-36.7-32.791-83.313-46.5-128.392-11-36.152-22.371-73.534-34.958-101.63-12.192-27.222-21-35.5-23.993-37.7-2.99,2.2-11.8,10.483-23.992,37.7-12.581,28.1-23.953,65.476-34.952,101.626-13.714,45.08-27.9,91.7-46.5,128.392-27.576,54.385-63.783,81.962-107.617,81.962s-80.044-27.577-107.62-81.962c-18.605-36.7-32.788-83.311-46.5-128.39-11-36.152-22.371-73.532-34.956-101.627-12.193-27.22-21-35.5-23.993-37.7-2.99,2.2-11.8,10.483-23.991,37.7-12.587,28.1-23.958,65.477-34.958,101.629-13.713,45.078-27.894,91.693-46.5,128.39-27.575,54.385-63.783,81.96-107.62,81.96s-80.043-27.577-107.619-81.962c-18.607-36.7-32.787-83.311-46.5-128.39-11-36.152-22.371-73.532-34.956-101.627-12.194-27.224-21-35.5-23.994-37.7-2.99,2.2-11.8,10.479-23.991,37.7-12.586,28.1-23.959,65.478-34.958,101.632-13.715,45.078-27.9,91.693-46.5,128.39-27.577,54.385-63.784,81.96-107.618,81.96s-80.043-27.575-107.621-81.96c-18.607-36.7-32.789-83.313-46.5-128.39-11-36.154-22.372-73.534-34.958-101.632-12.195-27.22-21-35.5-23.993-37.7-2.991,2.2-11.8,10.483-23.992,37.7-12.584,28.1-23.958,65.476-34.954,101.626-13.716,45.08-27.9,91.7-46.5,128.392-27.579,54.385-63.787,81.962-107.621,81.962s-80.043-27.577-107.618-81.962c-18.607-36.7-32.79-83.311-46.5-128.39-11-36.152-22.369-73.532-34.952-101.627-12.192-27.22-21-35.5-23.993-37.7-2.99,2.2-11.8,10.481-23.994,37.7-12.582,28.1-23.957,65.478-34.956,101.628-13.712,45.08-27.895,91.7-46.5,128.392-27.577,54.385-63.787,81.962-107.623,81.962s-80.04-27.577-107.618-81.962c-18.605-36.7-32.788-83.311-46.5-128.388-11-36.152-22.372-73.534-34.957-101.629-12.19-27.22-21-35.5-23.991-37.7-2.991,2.2-11.8,10.483-23.992,37.7-12.584,28.1-23.955,65.476-34.954,101.627-13.714,45.08-27.895,91.693-46.5,128.39-27.577,54.385-63.785,81.962-107.621,81.962s-80.042-27.577-107.616-81.962c-18.609-36.7-32.791-83.311-46.506-128.39-11-36.152-22.369-73.532-34.952-101.627-12.192-27.218-21-35.5-23.991-37.7-2.991,2.2-11.8,10.485-23.992,37.7-12.585,28.1-23.956,65.476-34.952,101.627-13.717,45.08-27.9,91.693-46.506,128.39-27.573,54.385-63.78,81.962-107.614,81.962S6172.58,25.574,6145-28.811c-18.607-36.7-32.79-83.311-46.5-128.39-11-36.152-22.372-73.532-34.955-101.627-12.19-27.218-21-35.5-23.989-37.7-2.991,2.2-11.8,10.485-23.992,37.7-12.584,28.1-23.958,65.476-34.954,101.627-13.717,45.08-27.9,91.693-46.5,128.39-27.577,54.385-63.785,81.962-107.619,81.962s-80.042-27.577-107.616-81.962c-18.609-36.7-32.79-83.311-46.5-128.388-11-36.152-22.369-73.534-34.955-101.629-12.19-27.218-21-35.5-23.989-37.7-2.99,2.2-11.8,10.485-23.991,37.7-12.584,28.1-23.958,65.476-34.954,101.626-13.717,45.08-27.9,91.7-46.5,128.392-27.579,54.385-63.787,81.962-107.621,81.962s-80.042-27.577-107.616-81.962c-18.607-36.7-32.786-83.313-46.5-128.39-11-36.152-22.368-73.532-34.95-101.627-12.19-27.213-21-35.5-23.992-37.7-2.992,2.206-11.8,10.491-23.991,37.7-12.582,28.1-23.953,65.476-34.95,101.627-13.717,45.078-27.9,91.693-46.5,128.39-27.577,54.385-63.783,81.962-107.617,81.962S4894.2,25.574,4866.621-28.811c-18.607-36.7-32.785-83.311-46.5-128.388-10.995-36.152-22.368-73.534-34.952-101.629-12.191-27.216-21-35.5-23.992-37.7-2.992,2.2-11.8,10.487-23.991,37.7-12.585,28.1-23.958,65.476-34.952,101.627-13.717,45.08-27.9,91.693-46.5,128.39-27.574,54.385-63.784,81.962-107.618,81.962s-80.042-27.577-107.621-81.962c-18.6-36.7-32.786-83.311-46.5-128.39-11-36.152-22.37-73.532-34.954-101.627-12.192-27.22-21-35.5-23.992-37.7-2.99,2.2-11.8,10.483-23.989,37.7-12.586,28.1-23.958,65.477-34.958,101.629-13.712,45.078-27.893,91.693-46.5,128.388-27.574,54.385-63.782,81.962-107.616,81.962s-80.04-27.577-107.618-81.962c-18.6-36.7-32.787-83.311-46.5-128.39-11-36.152-22.372-73.532-34.954-101.627-12.191-27.218-21-35.5-23.991-37.7-2.992,2.2-11.8,10.485-23.989,37.7-12.587,28.1-23.958,65.477-34.958,101.629-13.713,45.078-27.893,91.693-46.5,128.388-27.574,54.385-63.78,81.962-107.616,81.962s-80.042-27.577-107.618-81.962c-18.608-36.7-32.79-83.313-46.5-128.392-11-36.15-22.37-73.53-34.952-101.626-12.192-27.22-21-35.5-23.991-37.7-2.989,2.2-11.8,10.481-23.991,37.7-12.584,28.1-23.957,65.477-34.956,101.629-13.715,45.078-27.9,91.693-46.5,128.39-27.575,54.385-63.782,81.96-107.616,81.96S3189.672,25.574,3162.1-28.811c-18.607-36.7-32.789-83.311-46.5-128.39-11-36.152-22.37-73.532-34.954-101.627-12.191-27.22-21-35.5-23.99-37.7-2.99,2.2-11.8,10.481-23.993,37.7-12.584,28.1-23.958,65.477-34.954,101.629-13.717,45.078-27.9,91.693-46.5,128.39-27.576,54.385-63.784,81.96-107.618,81.96s-80.044-27.577-107.618-81.962c-18.607-36.7-32.788-83.311-46.5-128.39-11-36.152-22.369-73.532-34.956-101.627-12.188-27.218-21-35.5-23.989-37.7-2.993,2.2-11.8,10.485-23.991,37.7-12.584,28.1-23.957,65.477-34.956,101.629-13.713,45.078-27.9,91.693-46.5,128.388-27.579,54.385-63.784,81.962-107.618,81.962s-80.044-27.577-107.618-81.962c-18.607-36.7-32.789-83.311-46.5-128.39-11-36.152-22.37-73.532-34.952-101.627-12.193-27.218-21-35.5-23.993-37.7-2.99,2.2-11.8,10.485-23.991,37.7-12.584,28.1-23.955,65.476-34.952,101.627-13.715,45.08-27.895,91.693-46.5,128.39-27.575,54.385-63.785,81.962-107.619,81.962s-80.04-27.577-107.618-81.962c-18.605-36.7-32.787-83.311-46.5-128.39-11-36.152-22.368-73.532-34.952-101.627-12.193-27.218-21-35.5-23.991-37.7-2.99,2.2-11.8,10.485-23.989,37.7-12.587,28.1-23.957,65.476-34.954,101.627-13.715,45.08-27.9,91.693-46.5,128.39-27.577,54.385-63.782,81.962-107.618,81.962s-80.042-27.577-107.618-81.962c-18.607-36.7-32.789-83.311-46.5-128.39-11-36.152-22.372-73.532-34.954-101.627-12.193-27.22-21-35.5-23.993-37.7-2.99,2.2-11.8,10.483-23.991,37.7-12.582,28.1-23.955,65.476-34.954,101.627-13.715,45.08-27.895,91.7-46.5,128.39-27.577,54.385-63.784,81.962-107.618,81.962s-80.042-27.577-107.618-81.962c-18.605-36.7-32.787-83.311-46.5-128.39-11-36.152-22.37-73.532-34.954-101.627-12.191-27.218-21-35.5-23.991-37.7-2.99,2.2-11.8,10.485-23.991,37.7-12.584,28.1-23.955,65.476-34.954,101.627-13.713,45.08-27.895,91.693-46.5,128.39-27.577,54.385-63.784,81.962-107.616,81.962S632.88,25.574,605.3-28.811c-18.605-36.7-32.787-83.311-46.5-128.39-11-36.152-22.372-73.532-34.954-101.627-12.193-27.218-21-35.5-23.991-37.7-2.992,2.2-11.8,10.485-23.991,37.7-12.585,28.1-23.955,65.476-34.954,101.627-13.715,45.08-27.895,91.693-46.5,128.39-27.577,54.385-63.784,81.962-107.618,81.962S206.75,25.574,179.172-28.811c-18.607-36.7-32.787-83.313-46.5-128.392-11-36.15-22.37-73.53-34.954-101.626C82.618-292.536,72.71-297.2,72.61-297.247a3.413,3.413,0,0,0,1.114.219v-99.483c43.836,0,80.042,27.577,107.618,81.964,18.607,36.7,32.789,83.311,46.5,128.39,11,36.15,22.372,73.532,34.954,101.627,12.195,27.218,21,35.5,23.993,37.7,2.99-2.2,11.8-10.485,23.991-37.706,12.585-28.094,23.955-65.476,34.954-101.625,13.713-45.08,27.895-91.693,46.5-128.39,27.577-54.387,63.782-81.964,107.618-81.964s80.042,27.577,107.618,81.964c18.607,36.7,32.787,83.313,46.5,128.39,11,36.15,22.37,73.53,34.954,101.625,12.191,27.218,21,35.5,23.989,37.706,2.992-2.2,11.8-10.487,23.991-37.706,12.583-28.094,23.955-65.476,34.954-101.625,13.715-45.08,27.895-91.693,46.5-128.39,27.577-54.387,63.784-81.964,107.618-81.964s80.042,27.577,107.618,81.964c18.605,36.7,32.787,83.311,46.5,128.39,11,36.15,22.37,73.532,34.954,101.625,12.191,27.218,21,35.5,23.991,37.706,2.99-2.2,11.8-10.487,23.991-37.7,12.585-28.1,23.955-65.478,34.954-101.627,13.715-45.078,27.895-91.693,46.5-128.39,27.577-54.387,63.786-81.964,107.618-81.964s80.042,27.577,107.62,81.964c18.607,36.7,32.787,83.311,46.5,128.39,11,36.15,22.37,73.532,34.954,101.627,12.193,27.216,21,35.5,23.991,37.7,2.992-2.2,11.8-10.487,23.991-37.706,12.585-28.094,23.955-65.476,34.954-101.625,13.715-45.08,27.9-91.693,46.5-128.39,27.577-54.387,63.784-81.964,107.618-81.964s80.044,27.577,107.618,81.964c18.607,36.7,32.789,83.311,46.5,128.39,11,36.15,22.368,73.53,34.954,101.625,12.191,27.218,21,35.5,23.989,37.706,2.992-2.2,11.8-10.487,23.991-37.706,12.585-28.1,23.956-65.476,34.954-101.625,13.713-45.08,27.895-91.693,46.5-128.39,27.579-54.387,63.784-81.964,107.618-81.964s80.044,27.577,107.619,81.964c18.607,36.7,32.79,83.311,46.5,128.39,11,36.15,22.368,73.532,34.952,101.627,12.195,27.218,21,35.5,23.993,37.7,2.99-2.2,11.8-10.485,23.991-37.706,12.584-28.094,23.955-65.476,34.952-101.625,13.717-45.078,27.9-91.693,46.5-128.39,27.577-54.387,63.786-81.964,107.621-81.964s80.042,27.577,107.618,81.964c18.605,36.7,32.786,83.311,46.5,128.39,11,36.15,22.367,73.53,34.952,101.625,12.191,27.218,21,35.5,23.991,37.706,2.992-2.2,11.8-10.487,23.991-37.7,12.584-28.1,23.955-65.478,34.954-101.627,13.715-45.078,27.9-91.693,46.5-128.39,27.575-54.387,63.784-81.964,107.62-81.964s80.042,27.577,107.618,81.964c18.605,36.7,32.785,83.311,46.5,128.39,11,36.15,22.368,73.53,34.952,101.625,12.193,27.22,21,35.5,23.991,37.706,2.99-2.2,11.8-10.485,23.991-37.7,12.583-28.1,23.956-65.478,34.954-101.627,13.713-45.078,27.9-91.693,46.5-128.39,27.577-54.387,63.784-81.964,107.618-81.964s80.042,27.577,107.618,81.964c18.607,36.7,32.79,83.311,46.5,128.388,11,36.15,22.371,73.532,34.954,101.627,12.192,27.218,21,35.5,23.991,37.706,2.99-2.2,11.8-10.487,23.991-37.706,12.584-28.094,23.956-65.476,34.952-101.625,13.717-45.078,27.9-91.693,46.5-128.39,27.579-54.387,63.786-81.964,107.62-81.964s80.044,27.577,107.618,81.964c18.607,36.7,32.787,83.311,46.5,128.39,11,36.15,22.367,73.53,34.954,101.625,12.19,27.218,21,35.5,23.989,37.706,2.991-2.2,11.8-10.487,23.992-37.706,12.584-28.094,23.955-65.476,34.952-101.625,13.716-45.078,27.9-91.693,46.5-128.39,27.578-54.387,63.786-81.964,107.62-81.964s80.043,27.577,107.619,81.964c18.609,36.7,32.79,83.311,46.5,128.39,11,36.15,22.372,73.532,34.956,101.627,12.19,27.216,21,35.5,23.991,37.7,2.99-2.2,11.8-10.487,23.991-37.706,12.583-28.1,23.956-65.476,34.955-101.625,13.713-45.08,27.9-91.693,46.5-128.39,27.576-54.387,63.784-81.964,107.618-81.964s80.042,27.577,107.619,81.964c18.6,36.7,32.787,83.313,46.5,128.39,11,36.15,22.368,73.53,34.951,101.625,12.19,27.214,21,35.5,23.99,37.7,2.993-2.2,11.8-10.489,23.99-37.7,12.584-28.1,23.956-65.476,34.952-101.625,13.714-45.078,27.895-91.693,46.5-128.39,27.576-54.387,63.786-81.964,107.618-81.964s80.04,27.577,107.617,81.964c18.607,36.7,32.788,83.313,46.5,128.39,11,36.15,22.368,73.53,34.952,101.625,12.189,27.218,21,35.5,23.989,37.7,2.991-2.2,11.8-10.483,23.994-37.7,12.584-28.1,23.958-65.479,34.956-101.63,13.712-45.078,27.893-91.693,46.5-128.39,27.575-54.385,63.784-81.962,107.619-81.962s80.042,27.577,107.618,81.964c18.6,36.7,32.785,83.313,46.5,128.39,11,36.15,22.367,73.53,34.953,101.625,12.19,27.218,21,35.5,23.988,37.706,2.993-2.2,11.8-10.487,23.99-37.7,12.586-28.1,23.958-65.478,34.958-101.627,13.712-45.08,27.893-91.693,46.5-128.39,27.575-54.387,63.782-81.964,107.619-81.964s80.041,27.577,107.618,81.964c18.6,36.7,32.788,83.311,46.5,128.39,11,36.15,22.368,73.53,34.952,101.625,12.19,27.218,21,35.5,23.992,37.706,2.99-2.2,11.8-10.487,23.989-37.706,12.584-28.1,23.956-65.476,34.956-101.625,13.713-45.08,27.894-91.693,46.5-128.39,27.577-54.387,63.782-81.964,107.619-81.964s80.042,27.577,107.616,81.964c18.609,36.7,32.792,83.311,46.5,128.39,11,36.15,22.37,73.532,34.954,101.627,12.194,27.218,21,35.5,23.991,37.7,2.991-2.2,11.8-10.485,23.994-37.7,12.582-28.1,23.955-65.478,34.952-101.627,13.715-45.08,27.9-91.693,46.5-128.39,27.577-54.387,63.785-81.964,107.619-81.964s80.043,27.577,107.62,81.964c18.607,36.7,32.788,83.313,46.5,128.39,11,36.15,22.367,73.532,34.955,101.625,12.19,27.218,21,35.5,23.989,37.706,2.991-2.2,11.8-10.481,23.994-37.7,12.586-28.1,23.959-65.48,34.956-101.631,13.716-45.08,27.9-91.693,46.5-128.39,27.579-54.385,63.787-81.962,107.621-81.962s80.044,27.577,107.618,81.964c18.607,36.7,32.79,83.311,46.5,128.39,11,36.15,22.37,73.532,34.953,101.627,12.194,27.218,21,35.5,23.992,37.7,2.991-2.2,11.8-10.483,23.994-37.7,12.584-28.1,23.958-65.479,34.957-101.63,13.712-45.078,27.893-91.693,46.5-128.39,27.574-54.385,63.785-81.962,107.619-81.962s80.043,27.577,107.62,81.964c18.607,36.7,32.79,83.313,46.506,128.39,11,36.152,22.37,73.534,34.954,101.629,12.195,27.22,21,35.5,23.994,37.7,2.99-2.2,11.8-10.481,23.991-37.7,12.584-28.1,23.957-65.478,34.956-101.629,13.715-45.078,27.9-91.693,46.506-128.39,27.574-54.387,63.784-81.964,107.618-81.964s80.044,27.577,107.62,81.964c18.61,36.7,32.79,83.311,46.5,128.39,11,36.15,22.369,73.532,34.957,101.627,12.194,27.22,21,35.5,23.989,37.7,2.992-2.2,11.8-10.485,23.992-37.7,12.585-28.1,23.958-65.478,34.955-101.627,13.716-45.078,27.9-91.693,46.5-128.39,27.579-54.387,63.786-81.964,107.621-81.964s80.044,27.577,107.62,81.964c18.606,36.7,32.787,83.311,46.5,128.39,11,36.15,22.37,73.532,34.954,101.627,12.194,27.22,21,35.5,23.994,37.7,2.992-2.2,11.8-10.487,23.993-37.706,12.584-28.1,23.955-65.477,34.952-101.627,13.716-45.078,27.895-91.693,46.5-128.388,27.574-54.387,63.787-81.964,107.618-81.964s80.043,27.577,107.62,81.962c18.609,36.7,32.79,83.313,46.506,128.392,11,36.15,22.37,73.534,34.956,101.629,12.193,27.22,21,35.5,23.994,37.7,2.988-2.2,11.8-10.481,23.99-37.7,12.585-28.1,23.958-65.478,34.959-101.627,13.713-45.08,27.9-91.7,46.5-128.39,27.576-54.387,63.784-81.964,107.62-81.964s80.043,27.577,107.621,81.962c18.606,36.7,32.789,83.313,46.5,128.392,11,36.15,22.374,73.534,34.956,101.629,12.2,27.22,21,35.5,23.993,37.7,2.99-2.2,11.8-10.483,23.993-37.7,12.585-28.1,23.957-65.478,34.954-101.627,13.717-45.08,27.9-91.7,46.5-128.39,27.579-54.387,63.785-81.964,107.62-81.964s80.044,27.577,107.622,81.962c18.607,36.7,32.787,83.311,46.5,128.39,11,36.152,22.372,73.536,34.958,101.631,12.2,27.226,21.01,35.5,24,37.7,2.988-2.2,11.8-10.474,24-37.7,12.587-28.1,23.961-65.48,34.959-101.633,13.715-45.08,27.9-91.693,46.508-128.39,27.58-54.385,63.789-81.962,107.626-81.962s80.044,27.577,107.622,81.962c18.61,36.7,32.793,83.311,46.508,128.39,11,36.154,22.374,73.536,34.961,101.633,15.1,33.7,25.008,38.368,25.105,38.412a3.447,3.447,0,0,0-1.11-.219Z" transform="translate(0 0)" fill="url(#radial-gradient)"></path></g></svg>