<svg xmlns="http://www.w3.org/2000/svg" width="171.835" height="52.447" viewBox="0 0 171.835 52.447"><g id="Men&#xFA;_superior" data-name="Men&#xFA; superior" transform="translate(-36 -23)"><g id="Grupo_53" data-name="Grupo 53" transform="translate(-227.649 -233.89)"><g id="Grupo_49" data-name="Grupo 49" transform="translate(263.649 256.89)"><path id="Trazado_26" data-name="Trazado 26" d="M279.541,288.485h-4.1l-11.79-31.595h4.527L275.25,276.7l2.357,8.158,2.358-8.158,7.074-19.805h4.338Z" transform="translate(-263.649 -256.89)" fill="#68eaea"></path><path id="Trazado_27" data-name="Trazado 27" d="M334.346,295.249h-2.641a4.956,4.956,0,0,1-2.1-.425,3.1,3.1,0,0,1-1.438-1.367,5.293,5.293,0,0,1-.519-2.546v-9.478l-.141-.613a6.124,6.124,0,0,0-1.061-3.655q-1.061-1.486-3.937-1.485a6.5,6.5,0,0,0-4.079,1.25,8.473,8.473,0,0,0-2.523,3.136l-2.83-2.877a11.809,11.809,0,0,1,2.1-2.381,11.294,11.294,0,0,1,3.325-2,11.857,11.857,0,0,1,4.48-.8,8.492,8.492,0,0,1,6.39,2.311,8.9,8.9,0,0,1,2.24,6.46v9.337a1.153,1.153,0,0,0,1.321,1.368h1.415Zm-14.666.471a6.12,6.12,0,0,1-4.409-1.509,5.322,5.322,0,0,1-.024-7.545,14.315,14.315,0,0,1,4.008-2.641l9.007-4.055.566,2.782-7.875,3.725a8.5,8.5,0,0,0-2.358,1.509,2.5,2.5,0,0,0-.754,1.839,2.249,2.249,0,0,0,.8,1.839,3.715,3.715,0,0,0,2.4.661,7.58,7.58,0,0,0,2.665-.448,6.252,6.252,0,0,0,2.075-1.25,5.977,5.977,0,0,0,1.368-1.839,5.3,5.3,0,0,0,.495-2.311l.141,2.217a9.917,9.917,0,0,1-1.226,3.183,8.121,8.121,0,0,1-2.641,2.735A7.614,7.614,0,0,1,319.681,295.72Z" transform="translate(-285.776 -263.654)" fill="#68eaea"></path><path id="Trazado_28" data-name="Trazado 28" d="M363.452,288.485h-4.1V256.89h4.1Z" transform="translate(-306.489 -256.89)" fill="#68eaea"></path><path id="Trazado_29" data-name="Trazado 29" d="M385.423,295.632h-5.187l-8.252-22.777h4.48l4.527,13.534,1.933,6.225,1.934-6.225,4.48-13.534h4.385Z" transform="translate(-312.144 -264.037)" fill="#68eaea"></path><path id="Trazado_30" data-name="Trazado 30" d="M423.306,295.72a11.1,11.1,0,0,1-5.682-1.438,9.91,9.91,0,0,1-3.867-4.127,15.112,15.112,0,0,1-.024-12.614,9.894,9.894,0,0,1,3.8-4.1A10.663,10.663,0,0,1,423.07,272a11.08,11.08,0,0,1,5.541,1.32,8.843,8.843,0,0,1,3.584,3.773,12.743,12.743,0,0,1,1.25,5.847q0,.519-.047,1.014c-.031.33-.064.606-.094.825H415.478V281.81H430.8l-.99,1.415q0-3.866-1.792-5.847a6.4,6.4,0,0,0-5-1.981,6.119,6.119,0,0,0-4.857,2.051q-1.792,2.051-1.792,6.154v.519a10.78,10.78,0,0,0,.825,4.433,6.116,6.116,0,0,0,2.406,2.806,6.947,6.947,0,0,0,3.7.967,8.689,8.689,0,0,0,3.773-.708,6.216,6.216,0,0,0,2.264-1.745,9.4,9.4,0,0,0,1.225-2.028l2.547,2.782a10.839,10.839,0,0,1-9.809,5.093Z" transform="translate(-330.221 -263.654)" fill="#68eaea"></path><path id="Trazado_31" data-name="Trazado 31" d="M463.165,295.211h-4.1V272.435h4.1Zm0-12.968-.33-1.933a12.373,12.373,0,0,1,.684-3.113A9.289,9.289,0,0,1,465,274.509a7.269,7.269,0,0,1,2.264-1.886,6.3,6.3,0,0,1,3.018-.707,5.036,5.036,0,0,1,3.324,1.249,4.507,4.507,0,0,1,1.486,3.654,8.915,8.915,0,0,1-.307,2.5,4.877,4.877,0,0,1-.589,1.415h-4.433a3.911,3.911,0,0,0,.943-1.462,5.047,5.047,0,0,0,.377-1.886,2.742,2.742,0,0,0-.542-1.674,2.117,2.117,0,0,0-1.816-.731A4.438,4.438,0,0,0,466,276a6.914,6.914,0,0,0-2.075,2.664A8.516,8.516,0,0,0,463.165,282.243Z" transform="translate(-351.124 -263.616)" fill="#68eaea"></path><path id="Trazado_32" data-name="Trazado 32" d="M500.074,289.051a8.308,8.308,0,0,1-4.928-1.485,9.615,9.615,0,0,1-3.254-4.174,17.66,17.66,0,0,1,0-12.567,9.538,9.538,0,0,1,3.231-4.126,8.374,8.374,0,0,1,4.951-1.462,6.924,6.924,0,0,1,4.22,1.2,7.316,7.316,0,0,1,2.429,3.112,14.5,14.5,0,0,1,1.037,4.032l-.33,1.886a9.467,9.467,0,0,0-.589-3.419,5.2,5.2,0,0,0-1.91-2.452,5.993,5.993,0,0,0-3.49-.92,6.166,6.166,0,0,0-4.621,2.028q-1.935,2.028-1.934,6.413,0,4.339,1.934,6.39a6.181,6.181,0,0,0,4.668,2.051,5.9,5.9,0,0,0,3.443-.92,5.2,5.2,0,0,0,1.91-2.452,9.46,9.46,0,0,0,.589-3.419l.33,1.933a14.2,14.2,0,0,1-1.037,4.008,7.583,7.583,0,0,1-2.4,3.112A6.805,6.805,0,0,1,500.074,289.051Zm11.459-.566h-4.1V256.89h4.1Z" transform="translate(-365.302 -256.89)" fill="#68eaea"></path><path id="Trazado_33" data-name="Trazado 33" d="M547.522,295.72a11.1,11.1,0,0,1-5.683-1.438,9.91,9.91,0,0,1-3.867-4.127,15.107,15.107,0,0,1-.024-12.614,9.893,9.893,0,0,1,3.8-4.1A10.663,10.663,0,0,1,547.285,272a11.081,11.081,0,0,1,5.541,1.32,8.842,8.842,0,0,1,3.584,3.773,12.736,12.736,0,0,1,1.25,5.847q0,.519-.047,1.014c-.031.33-.063.606-.094.825H539.694V281.81h15.326l-.99,1.415q0-3.866-1.792-5.847a6.4,6.4,0,0,0-5-1.981,6.118,6.118,0,0,0-4.857,2.051q-1.793,2.051-1.792,6.154v.519a10.772,10.772,0,0,0,.825,4.433,6.119,6.119,0,0,0,2.4,2.806,6.948,6.948,0,0,0,3.7.967,8.684,8.684,0,0,0,3.772-.708,6.21,6.21,0,0,0,2.263-1.745,9.385,9.385,0,0,0,1.226-2.028l2.547,2.782a10.837,10.837,0,0,1-9.808,5.093Z" transform="translate(-385.825 -263.654)" fill="#68eaea"></path></g><g id="Grupo_50" data-name="Grupo 50" transform="translate(330.443 294.587)"><path id="Trazado_34" data-name="Trazado 34" d="M388.395,332.488h-2.607v4.275h-1.214V325.138h3.821a4.875,4.875,0,0,1,2.1.429,3.309,3.309,0,0,1,1.417,1.238,3.671,3.671,0,0,1,.509,1.992,3.751,3.751,0,0,1-.509,2.007,3.271,3.271,0,0,1-1.417,1.255A4.867,4.867,0,0,1,388.395,332.488Zm-.016-6.314h-2.591v5.278h2.591a2.957,2.957,0,0,0,2.064-.7,2.507,2.507,0,0,0,.769-1.959,2.457,2.457,0,0,0-.769-1.943A3,3,0,0,0,388.379,326.174Z" transform="translate(-384.574 -325.138)" fill="#084e89"></path><path id="Trazado_35" data-name="Trazado 35" d="M407.377,336.758a2.217,2.217,0,0,1-.89,1.862,4,4,0,0,1-2.477.68,3.857,3.857,0,0,1-2.517-.761,2.927,2.927,0,0,1-1.06-2.072h1.085a1.873,1.873,0,0,0,.728,1.441,2.772,2.772,0,0,0,1.765.534,2.972,2.972,0,0,0,1.643-.388,1.258,1.258,0,0,0,.591-1.117,1.175,1.175,0,0,0-.4-.963,3.239,3.239,0,0,0-1.376-.526l-1.23-.243a3.616,3.616,0,0,1-1.846-.818,1.981,1.981,0,0,1-.631-1.514,2.107,2.107,0,0,1,.4-1.263,2.606,2.606,0,0,1,1.1-.858,4.027,4.027,0,0,1,1.627-.308,4.163,4.163,0,0,1,1.724.333,2.828,2.828,0,0,1,1.174.947,2.757,2.757,0,0,1,.486,1.473H406.2a1.91,1.91,0,0,0-.7-1.384,2.925,2.925,0,0,0-3.084-.105,1.234,1.234,0,0,0-.558,1.069,1.187,1.187,0,0,0,.413.971,3.082,3.082,0,0,0,1.368.518l1.28.243a3.787,3.787,0,0,1,1.861.793A1.884,1.884,0,0,1,407.377,336.758Z" transform="translate(-391.673 -327.513)" fill="#084e89"></path><path id="Trazado_36" data-name="Trazado 36" d="M417.267,326.479a.82.82,0,0,1-.251.615.925.925,0,0,1-.672.242.91.91,0,0,1-.648-.242.809.809,0,0,1-.259-.615.783.783,0,0,1,.259-.607.927.927,0,0,1,.648-.235.942.942,0,0,1,.672.235A.793.793,0,0,1,417.267,326.479Zm-.34,10.508h-1.133v-8.532h1.133Z" transform="translate(-398.39 -325.361)" fill="#084e89"></path><path id="Trazado_37" data-name="Trazado 37" d="M424.77,339.316a3.526,3.526,0,0,1-1.991-.567,3.832,3.832,0,0,1-1.344-1.57,5.256,5.256,0,0,1-.486-2.315,5.164,5.164,0,0,1,.486-2.291,3.829,3.829,0,0,1,1.352-1.563,3.546,3.546,0,0,1,1.984-.567,3.743,3.743,0,0,1,1.781.421,3.511,3.511,0,0,1,1.3,1.2,4.565,4.565,0,0,1,.672,1.845h-1.149a3.143,3.143,0,0,0-.882-1.821,2.4,2.4,0,0,0-1.724-.656,2.331,2.331,0,0,0-1.4.437,2.832,2.832,0,0,0-.939,1.2,4.466,4.466,0,0,0-.332,1.8,4.643,4.643,0,0,0,.332,1.822,2.753,2.753,0,0,0,.939,1.215,2.362,2.362,0,0,0,1.4.429,2.4,2.4,0,0,0,1.733-.656,3.185,3.185,0,0,0,.874-1.838h1.149a4.415,4.415,0,0,1-.656,1.862,3.511,3.511,0,0,1-1.3,1.2A3.777,3.777,0,0,1,424.77,339.316Z" transform="translate(-400.857 -327.513)" fill="#084e89"></path><path id="Trazado_38" data-name="Trazado 38" d="M440.179,339.313a4.024,4.024,0,0,1-1.619-.324,3.716,3.716,0,0,1-1.287-.923,4.284,4.284,0,0,1-.842-1.409,5.092,5.092,0,0,1-.3-1.781,5.04,5.04,0,0,1,.3-1.764,4.2,4.2,0,0,1,.842-1.4,3.768,3.768,0,0,1,1.287-.915,4.024,4.024,0,0,1,1.619-.324,4.068,4.068,0,0,1,1.636.324,3.773,3.773,0,0,1,1.287.915,4.217,4.217,0,0,1,.842,1.4,5.04,5.04,0,0,1,.3,1.764,5.092,5.092,0,0,1-.3,1.781,4.3,4.3,0,0,1-.842,1.409,3.721,3.721,0,0,1-1.287.923A4.068,4.068,0,0,1,440.179,339.313Zm0-.972a2.675,2.675,0,0,0,1.5-.429,2.956,2.956,0,0,0,1.036-1.206,4.119,4.119,0,0,0,.381-1.83,4.014,4.014,0,0,0-.381-1.813,2.919,2.919,0,0,0-1.036-1.182,2.714,2.714,0,0,0-1.5-.421,2.683,2.683,0,0,0-1.481.421,2.916,2.916,0,0,0-1.036,1.182,4.014,4.014,0,0,0-.38,1.813,4.119,4.119,0,0,0,.38,1.83,2.953,2.953,0,0,0,1.036,1.206A2.645,2.645,0,0,0,440.179,338.341Z" transform="translate(-407.653 -327.526)" fill="#084e89"></path><path id="Trazado_39" data-name="Trazado 39" d="M456.635,336.137v1a2.507,2.507,0,0,1-.615.194,3.777,3.777,0,0,1-.615.049,3,3,0,0,1-1.263-.259,1.977,1.977,0,0,1-.9-.826,2.926,2.926,0,0,1-.332-1.489v-5.165H450.9v-.955h2.008v-2.526h1.133v2.526h2.671v.955h-2.671v4.922a1.788,1.788,0,0,0,.445,1.392,1.677,1.677,0,0,0,1.142.388,2.549,2.549,0,0,0,.51-.049A2.511,2.511,0,0,0,456.635,336.137Z" transform="translate(-414.266 -325.597)" fill="#084e89"></path><path id="Trazado_40" data-name="Trazado 40" d="M466.377,339.3a3.884,3.884,0,0,1-2.1-.559,3.711,3.711,0,0,1-1.392-1.578,5.357,5.357,0,0,1-.493-2.364,4.754,4.754,0,0,1,.509-2.226,4.045,4.045,0,0,1,1.393-1.554,3.613,3.613,0,0,1,2.016-.575,3.8,3.8,0,0,1,1.644.349,3.512,3.512,0,0,1,1.247.979,4.242,4.242,0,0,1,.761,1.481,5.207,5.207,0,0,1,.17,1.886H463.01v-.777h5.942a3.537,3.537,0,0,0-.769-2.243,2.387,2.387,0,0,0-1.886-.8,2.5,2.5,0,0,0-1.449.429,2.873,2.873,0,0,0-.979,1.206,4.39,4.39,0,0,0-.356,1.845,4.978,4.978,0,0,0,.34,1.919,2.741,2.741,0,0,0,.98,1.254,2.641,2.641,0,0,0,1.529.437,2.712,2.712,0,0,0,1.773-.575,2.663,2.663,0,0,0,.914-1.579h1.117a3.729,3.729,0,0,1-1.3,2.227A3.827,3.827,0,0,1,466.377,339.3Z" transform="translate(-419.41 -327.513)" fill="#084e89"></path><path id="Trazado_41" data-name="Trazado 41" d="M480.44,334.6v4.566h-1.133v-8.532h1.052v1.943a3.664,3.664,0,0,1,1.327-1.506,3.471,3.471,0,0,1,1.927-.567v1.182a3.432,3.432,0,0,0-1.611.308,2.676,2.676,0,0,0-1.142,1A2.932,2.932,0,0,0,480.44,334.6Z" transform="translate(-426.98 -327.539)" fill="#084e89"></path><path id="Trazado_42" data-name="Trazado 42" d="M493.938,339.138v-1.554a2.893,2.893,0,0,1-1.117,1.254,3.253,3.253,0,0,1-1.749.462,3.121,3.121,0,0,1-2.121-.688,2.311,2.311,0,0,1-.793-1.838,2.1,2.1,0,0,1,.988-1.886,5.444,5.444,0,0,1,2.93-.639q.389,0,.761.016t.988.081v-.728a2.4,2.4,0,0,0-.542-1.668,1.939,1.939,0,0,0-1.514-.6,2.129,2.129,0,0,0-2.282,2.25H488.45a3.282,3.282,0,0,1,.437-1.659,2.952,2.952,0,0,1,1.157-1.1,3.548,3.548,0,0,1,1.708-.4,2.871,2.871,0,0,1,3.157,3.141v5.553Zm-4.7-2.4a1.58,1.58,0,0,0,.55,1.254,2.118,2.118,0,0,0,1.441.478,2.512,2.512,0,0,0,1.894-.72,2.646,2.646,0,0,0,.7-1.919v-.761q-.551-.049-.947-.065t-.753-.017a4.311,4.311,0,0,0-2.161.429A1.431,1.431,0,0,0,489.243,336.742Z" transform="translate(-430.942 -327.513)" fill="#084e89"></path><path id="Trazado_43" data-name="Trazado 43" d="M512.01,334.863a5.5,5.5,0,0,1-.461,2.315,3.676,3.676,0,0,1-1.3,1.562,3.478,3.478,0,0,1-1.984.559,3.127,3.127,0,0,1-1.733-.5,3.377,3.377,0,0,1-1.214-1.409v4.873H504.19V330.605h1.053v1.845a3.4,3.4,0,0,1,1.247-1.481,3.2,3.2,0,0,1,1.781-.526,3.492,3.492,0,0,1,1.975.559,3.668,3.668,0,0,1,1.3,1.554A5.439,5.439,0,0,1,512.01,334.863Zm-1.149,0a3.786,3.786,0,0,0-.769-2.525,2.516,2.516,0,0,0-2.015-.906,2.558,2.558,0,0,0-1.409.4,2.759,2.759,0,0,0-1,1.166,4.3,4.3,0,0,0-.364,1.861,4.364,4.364,0,0,0,.356,1.83,2.8,2.8,0,0,0,.988,1.2,2.665,2.665,0,0,0,3.44-.486A3.81,3.81,0,0,0,510.861,334.863Z" transform="translate(-438.119 -327.513)" fill="#084e89"></path><path id="Trazado_44" data-name="Trazado 44" d="M524,339.3a3.884,3.884,0,0,1-2.1-.559,3.711,3.711,0,0,1-1.393-1.578,5.357,5.357,0,0,1-.493-2.364,4.755,4.755,0,0,1,.509-2.226,4.045,4.045,0,0,1,1.393-1.554,3.613,3.613,0,0,1,2.016-.575,3.8,3.8,0,0,1,1.644.349,3.511,3.511,0,0,1,1.247.979,4.243,4.243,0,0,1,.761,1.481,5.207,5.207,0,0,1,.17,1.886h-7.123v-.777h5.942a3.537,3.537,0,0,0-.769-2.243,2.387,2.387,0,0,0-1.886-.8,2.5,2.5,0,0,0-1.449.429,2.874,2.874,0,0,0-.979,1.206,4.391,4.391,0,0,0-.356,1.845,4.977,4.977,0,0,0,.34,1.919,2.741,2.741,0,0,0,.98,1.254,2.641,2.641,0,0,0,1.529.437,2.712,2.712,0,0,0,1.773-.575,2.663,2.663,0,0,0,.914-1.579h1.117a3.729,3.729,0,0,1-1.3,2.227A3.826,3.826,0,0,1,524,339.3Z" transform="translate(-445.205 -327.513)" fill="#084e89"></path><path id="Trazado_45" data-name="Trazado 45" d="M542.321,335.837v-5.1h1.117v8.532h-1.052v-1.538a2.763,2.763,0,0,1-1.052,1.222,2.975,2.975,0,0,1-1.668.478,3.314,3.314,0,0,1-1.514-.332,2.266,2.266,0,0,1-1.012-1.036,3.912,3.912,0,0,1-.356-1.773v-5.553h1.133v5.31a2.482,2.482,0,0,0,.583,1.854,2.042,2.042,0,0,0,1.473.558,2.175,2.175,0,0,0,1.206-.34,2.4,2.4,0,0,0,.834-.94A2.9,2.9,0,0,0,542.321,335.837Z" transform="translate(-452.709 -327.644)" fill="#084e89"></path><path id="Trazado_46" data-name="Trazado 46" d="M556.086,336.137v1a2.507,2.507,0,0,1-.615.194,3.768,3.768,0,0,1-.615.049,3,3,0,0,1-1.263-.259,1.977,1.977,0,0,1-.9-.826,2.926,2.926,0,0,1-.332-1.489v-5.165h-2.008v-.955h2.008v-2.526H553.5v2.526h2.671v.955H553.5v4.922a1.788,1.788,0,0,0,.445,1.392,1.675,1.675,0,0,0,1.141.388,2.55,2.55,0,0,0,.51-.049A2.512,2.512,0,0,0,556.086,336.137Z" transform="translate(-458.784 -325.597)" fill="#084e89"></path><path id="Trazado_47" data-name="Trazado 47" d="M568.3,339.138v-1.554a2.893,2.893,0,0,1-1.117,1.254,3.252,3.252,0,0,1-1.749.462,3.121,3.121,0,0,1-2.121-.688,2.31,2.31,0,0,1-.793-1.838,2.1,2.1,0,0,1,.988-1.886,5.442,5.442,0,0,1,2.93-.639q.389,0,.761.016t.988.081v-.728a2.4,2.4,0,0,0-.542-1.668,1.937,1.937,0,0,0-1.513-.6,2.129,2.129,0,0,0-2.283,2.25h-1.036a3.282,3.282,0,0,1,.437-1.659,2.953,2.953,0,0,1,1.158-1.1,3.546,3.546,0,0,1,1.708-.4,2.871,2.871,0,0,1,3.157,3.141v5.553Zm-4.7-2.4a1.58,1.58,0,0,0,.55,1.254,2.12,2.12,0,0,0,1.441.478,2.513,2.513,0,0,0,1.895-.72,2.648,2.648,0,0,0,.7-1.919v-.761q-.551-.049-.947-.065t-.753-.017a4.312,4.312,0,0,0-2.161.429A1.431,1.431,0,0,0,563.6,336.742Z" transform="translate(-464.23 -327.513)" fill="#084e89"></path></g></g></g></svg>